# xmcd CD database file
#
# Track frame offsets:
#	150
#	12898
#	24017
#	39257
#	57725
#	71738
#	86313
#	96570
#	112059
#	128804
#	144016
#	153816
#	171030
#
# Disc length: 2532 seconds
#
# Revision: 0
# Processed by: cddbd v1.5.1PL2 Copyright (c) Steve Scherf et al.
# Submitted via: CDex 1.51
#
DISCID=9e09e20d
DTITLE=Jane Bond - Volume II
DYEAR=2004
DGENRE=Blues
TTITLE0=Going To New Orleans
TTITLE1=Idle Hands
TTITLE2=Mister
TTITLE3=Train Whistle Blues
TTITLE4=Ella Speed
TTITLE5=Break Away
TTITLE6=Wasted Tears
TTITLE7=Ooh Mama
TTITLE8=Chauffeur
TTITLE9=New River Train
TTITLE10=8:30 Blues
TTITLE11=Long Gone Blues
TTITLE12=Sorry 'Bout That
EXTD=YEAR: 2004
EXTT0=
EXTT1=
EXTT2=
EXTT3=
EXTT4=
EXTT5=
EXTT6=
EXTT7=
EXTT8=
EXTT9=
EXTT10=
EXTT11=
EXTT12=
PLAYORDER=
